<?xml version="1.0" encoding="iso-8859-1"?>
<!-- Generator: Adobe Illustrator 19.0.0, SVG Export Plug-In . SVG Version: 6.00 Build 0)  -->
<svg version="1.1" id="Capa_1" xmlns="http://www.w3.org/2000/svg" xmlns:xlink="http://www.w3.org/1999/xlink" x="0px" y="0px"
	 viewBox="0 0 469.333 469.333" style="enable-background:new 0 0 469.333 469.333;" xml:space="preserve">
<g>
	<g>
		<g>
			<path d="M170.667,64h-64C83.135,64,64,83.135,64,106.667v320c0,23.531,19.135,42.667,42.667,42.667h64
				c23.531,0,42.667-19.135,42.667-42.667v-320C213.333,83.135,194.198,64,170.667,64z"/>
			<path d="M362.771,64h-64.208C275.094,64,256,83.094,256,106.562v192.208c0,23.469,19.094,42.563,42.562,42.563h64.208
				c23.469,0,42.563-19.094,42.563-42.563V106.562C405.333,83.094,386.24,64,362.771,64z"/>
			<path d="M458.667,0h-448C4.771,0,0,4.771,0,10.667V32c0,5.896,4.771,10.667,10.667,10.667h448
				c5.896,0,10.667-4.771,10.667-10.667V10.667C469.333,4.771,464.563,0,458.667,0z"/>
		</g>
	</g>
</g>
<g>
</g>
<g>
</g>
<g>
</g>
<g>
</g>
<g>
</g>
<g>
</g>
<g>
</g>
<g>
</g>
<g>
</g>
<g>
</g>
<g>
</g>
<g>
</g>
<g>
</g>
<g>
</g>
<g>
</g>
</svg>
